<svg xmlns="http://www.w3.org/2000/svg" version="1.1" id="svg10" xml:space="preserve" width="200" height="200" viewBox="-101 -50 1 300">
  <g id="g18" transform="matrix(1.3333333,0,0,-1.3333333, 0,602.41982)">
    <g id="g464">
      <g id="g441">
        <g id="g56" transform="matrix(3.7784072,0,0,3.7784072,-47.596688,362.92407)">
          <path d="m 0,0 c -0.103,0.605 -0.267,1.192 -0.509,1.735 -0.766,1.655 -1.833,3.045 -3.437,3.979 -2.487,1.453 -5.496,1.443 -7.96,-0.05 -1.115,-0.673 -2.031,-1.643 -2.622,-2.807 -0.201,-0.395 -0.363,-0.809 -0.496,-1.231 -0.65,-2.062 -0.626,-4.836 0.544,-6.719 0.382,-0.615 0.933,-1.138 1.608,-1.402 0.676,-0.26 1.476,-0.233 2.082,0.162 0.785,0.505 0.924,1.473 0.778,2.331 -0.184,1.094 -0.324,2.174 0.077,3.248 0.132,0.342 0.313,0.672 0.577,0.927 0.16,0.152 0.35,0.28 0.55,0.376 0.424,0.207 0.91,0.301 1.374,0.224 0.818,-0.133 1.483,-0.764 1.847,-1.508 0.361,-0.74 0.46,-1.581 0.499,-2.406 0.171,-3.593 -0.687,-7.317 -1.603,-10.769 -0.095,-0.357 -0.192,-0.709 -0.293,-1.063 -0.08,-0.274 -0.217,-0.621 -0.044,-0.887 0.075,-0.113 0.193,-0.193 0.32,-0.244 0.533,-0.216 0.967,0.11 1.324,0.471 2.109,2.12 3.459,4.854 4.382,7.666 0.346,1.048 0.641,2.12 0.841,3.208 C 0.111,-3.271 0.267,-1.569 0,0" style="fill:#008e90;fill-opacity:1;fill-rule:nonzero;stroke:none" id="path58"></path>
        </g>
        <g id="g60" transform="matrix(3.7784072,0,0,3.7784072,9.4039817,425.69399)">
          <path d="m 0,0 c 0,0.539 -0.477,0.894 -0.992,0.879 -0.519,-0.021 -1.001,-0.286 -1.48,-0.47 -9.27,-3.524 -19.722,-4.191 -29.491,-2.785 -1.672,0.242 -3.365,0.577 -5.046,0.841 -1.049,0.164 -2.091,0.401 -3.151,0.482 -0.902,0.068 -2.029,0.101 -2.759,-0.527 -0.964,-0.832 -0.896,-2.41 -0.349,-3.453 0.657,-1.25 1.806,-2.187 3.001,-2.902 1.161,-0.69 2.547,-1.429 3.932,-1.341 3.732,0.237 7.456,0.598 11.168,1.08 6.327,0.822 12.962,1.598 18.905,4.052 1.944,0.803 3.86,1.804 5.525,3.098 C -0.434,-0.817 0,-0.438 0,0" style="fill:#008e90;fill-opacity:1;fill-rule:nonzero;stroke:none" id="path62"></path>
        </g>
        <g id="g64" transform="matrix(3.7784072,0,0,3.7784072,-91.044588,437.69497)">
          <path d="m 0,0 c 0,-2.014 1.634,-3.645 3.648,-3.645 2.013,0 3.645,1.631 3.645,3.645 0,0.299 -0.068,0.6 -0.198,0.872 C 6.784,1.536 6.432,1.858 6.469,2.65 6.514,3.724 5.141,3.737 4.401,3.737 3.595,3.737 2.739,3.626 2.012,3.26 1.433,2.966 0.934,2.519 0.582,1.971 0.217,1.413 0.017,0.75 0.002,0.084 0,0.055 0,0.027 0,0" style="fill:#e1005b;fill-opacity:1;fill-rule:nonzero;stroke:none" id="path66"></path>
        </g>
      </g>
    </g>
  </g>
</svg>