<svg xmlns="http://www.w3.org/2000/svg" xmlns:xlink="http://www.w3.org/1999/xlink" viewBox="0 -25 232.73 197.39">
  <defs>
    <clipPath id="a" transform="translate(-395.26 -413.7)">
      <path d="M443.17,484.33a67.23,67.23,0,1,0,67.24-67.22,67.22,67.22,0,0,0-67.24,67.22" style="fill:none" />
    </clipPath>
  </defs>
  <path d="M580.92,484.28a70.58,70.58,0,1,1-70.54-70.58,70.57,70.57,0,0,1,70.54,70.58" transform="translate(-395.26 -413.7)" style="fill:#fff" />
  <path d="M510.43,551.55a67.24,67.24,0,1,0-67.26-67.25,67.22,67.22,0,0,0,67.26,67.25" transform="translate(-395.26 -413.7)" style="fill:#0869ab" />
  <g style="clip-path:url(#a)">
    <path d="M511,516.73c29.58,0,54.88,8.26,65.77,19.95a68.43,68.43,0,0,0,5.6-27.19c0-38.61-32-69.83-71.37-69.83s-71.32,31.25-71.32,69.85a68.54,68.54,0,0,0,5.61,27.17C456.16,525,481.49,516.73,511,516.73" transform="translate(-395.26 -413.7)" style="fill:#0869ab" />
    <path d="M511,516.81c29.5,0,54.74,8.19,65.59,19.79a67.33,67.33,0,0,0,5.59-27c0-38.29-31.88-69.36-71.18-69.36s-71.15,31.09-71.15,69.38a67.49,67.49,0,0,0,5.61,27C456.29,525,481.55,516.81,511,516.81" transform="translate(-395.26 -413.7)" style="fill:#0d6bad" />
    <path d="M511,516.88c29.43,0,54.6,8.13,65.43,19.61A66.54,66.54,0,0,0,582,509.75c0-38-31.8-68.9-71-68.9s-71,30.93-71,68.91a66.62,66.62,0,0,0,5.6,26.73c10.79-11.49,36-19.61,65.37-19.61" transform="translate(-395.26 -413.7)" style="fill:#0f6ead" />
    <path d="M511,517c29.36,0,54.46,8.06,65.26,19.46a65.8,65.8,0,0,0,5.55-26.54c0-37.67-31.71-68.43-70.81-68.43s-70.78,30.78-70.78,68.45a65.78,65.78,0,0,0,5.59,26.52C456.55,525,481.68,517,511,517" transform="translate(-395.26 -413.7)" style="fill:#1270b0" />
    <path d="M511,517c29.28,0,54.33,8,65.09,19.3A65,65,0,0,0,581.61,510c0-37.36-31.64-68-70.64-68s-70.6,30.62-70.6,68a64.91,64.91,0,0,0,5.56,26.29C456.69,525,481.74,517,511,517" transform="translate(-395.26 -413.7)" style="fill:#1473b2" />
    <path d="M511,517.11c29.2,0,54.18,7.92,64.91,19.14a64,64,0,0,0,5.53-26.1c0-37.06-31.55-67.5-70.45-67.5s-70.41,30.47-70.41,67.52a64.2,64.2,0,0,0,5.55,26.09c10.7-11.22,35.71-19.14,64.86-19.14" transform="translate(-395.26 -413.7)" style="fill:#1775b2" />
    <path d="M511,517.18c29.13,0,54,7.86,64.75,19a63.28,63.28,0,0,0,5.52-25.89c0-36.74-31.48-67-70.27-67s-70.23,30.32-70.23,67.06a63.46,63.46,0,0,0,5.53,25.88c10.69-11.13,35.62-19,64.7-19" transform="translate(-395.26 -413.7)" style="fill:#1a78b5" />
    <path d="M510.94,517.26c29.05,0,53.9,7.79,64.58,18.82A62.26,62.26,0,0,0,581,510.4c0-36.43-31.39-66.57-70.09-66.57s-70,30.17-70,66.6a62.21,62.21,0,0,0,5.53,25.65c10.66-11,35.53-18.82,64.52-18.82" transform="translate(-395.26 -413.7)" style="fill:#1c7ab5" />
    <path d="M510.94,517.33c29,0,53.76,7.72,64.4,18.65a61.14,61.14,0,0,0,5.51-25.45c0-36.11-31.31-66.11-69.91-66.11s-69.87,30-69.87,66.13A61.35,61.35,0,0,0,446.58,536c10.63-10.94,35.43-18.65,64.35-18.65" transform="translate(-395.26 -413.7)" style="fill:#1c7db8" />
    <path d="M510.93,517.41c28.9,0,53.62,7.66,64.24,18.5a60.51,60.51,0,0,0,5.49-25.23c0-35.81-31.24-65.66-69.73-65.66s-69.69,29.87-69.69,65.66a60.64,60.64,0,0,0,5.5,25.23c10.61-10.84,35.36-18.5,64.19-18.5" transform="translate(-395.26 -413.7)" style="fill:#1f80b8" />
    <path d="M510.92,517.48c28.83,0,53.49,7.59,64.08,18.33a59.56,59.56,0,0,0,5.47-25c0-35.5-31.14-65.19-69.55-65.19s-69.51,29.71-69.51,65.2a59.79,59.79,0,0,0,5.49,25c10.58-10.74,35.26-18.33,64-18.33" transform="translate(-395.26 -413.7)" style="fill:#2182ba" />
    <path d="M510.9,517.56c28.74,0,53.34,7.52,63.9,18.17a58.81,58.81,0,0,0,5.47-24.79c0-35.19-31.07-64.73-69.36-64.73S441.59,475.77,441.59,511a58.83,58.83,0,0,0,5.47,24.78c10.54-10.65,35.16-18.17,63.84-18.17" transform="translate(-395.26 -413.7)" style="fill:#2485ba" />
    <path d="M510.9,517.63c28.67,0,53.2,7.45,63.73,18a57.77,57.77,0,0,0,5.45-24.58c0-34.87-31-64.25-69.17-64.25s-69.14,29.4-69.14,64.26a58.16,58.16,0,0,0,5.47,24.57c10.51-10.56,35.07-18,63.68-18" transform="translate(-395.26 -413.7)" style="fill:#298abd" />
    <path d="M510.89,517.71c28.59,0,53.05,7.38,63.56,17.85a57.07,57.07,0,0,0,5.43-24.36c0-34.57-30.89-63.79-69-63.79s-69,29.25-69,63.79a57.32,57.32,0,0,0,5.44,24.36c10.5-10.47,35-17.85,63.51-17.85" transform="translate(-395.26 -413.7)" style="fill:#2b8cbf" />
    <path d="M510.88,517.78c28.52,0,52.92,7.32,63.4,17.69a56.29,56.29,0,0,0,5.41-24.14c0-34.25-30.81-63.32-68.81-63.32S442.1,477.1,442.1,511.33a56.53,56.53,0,0,0,5.43,24.14c10.47-10.37,34.9-17.69,63.34-17.69" transform="translate(-395.26 -413.7)" style="fill:#2e8fbf" />
    <path d="M510.87,517.86c28.44,0,52.78,7.25,63.23,17.53a55.48,55.48,0,0,0,5.41-23.93c0-33.94-30.73-62.85-68.64-62.85s-68.59,28.94-68.59,62.87a55.59,55.59,0,0,0,5.41,23.91c10.43-10.28,34.8-17.53,63.18-17.53" transform="translate(-395.26 -413.7)" style="fill:#2e91c2" />
    <path d="M510.86,517.93c28.37,0,52.64,7.18,63.06,17.36a54.55,54.55,0,0,0,5.39-23.7c0-33.62-30.66-62.39-68.45-62.39S442.45,478,442.45,511.59a54.72,54.72,0,0,0,5.41,23.7c10.41-10.18,34.71-17.36,63-17.36" transform="translate(-395.26 -413.7)" style="fill:#3394c2" />
    <path d="M510.85,518c28.29,0,52.5,7.12,62.89,17.2a53.64,53.64,0,0,0,5.39-23.49c0-33.31-30.57-61.92-68.27-61.92s-68.23,28.62-68.23,61.93A54,54,0,0,0,448,535.22c10.39-10.09,34.61-17.2,62.84-17.2" transform="translate(-395.26 -413.7)" style="fill:#3396c2" />
    <path d="M510.84,518.09c28.21,0,52.36,7,62.71,17a52.69,52.69,0,0,0,5.37-23.26c0-33-30.48-61.46-68.09-61.46s-68,28.46-68,61.46a53.06,53.06,0,0,0,5.39,23.26c10.35-10,34.51-17,62.66-17" transform="translate(-395.26 -413.7)" style="fill:#3699c4" />
    <path d="M510.83,518.16c28.15,0,52.23,7,62.55,16.89A51.94,51.94,0,0,0,578.74,512c0-32.7-30.4-61-67.91-61S443,479.31,443,512A52.36,52.36,0,0,0,448.34,535c10.32-9.91,34.43-16.89,62.49-16.89" transform="translate(-395.26 -413.7)" style="fill:#389cc7" />
    <path d="M510.82,518.24c28.07,0,52.08,6.92,62.37,16.72a51.27,51.27,0,0,0,5.36-22.83c0-32.39-30.33-60.53-67.73-60.53s-67.68,28.16-67.68,60.53A51.48,51.48,0,0,0,448.5,535c10.3-9.8,34.33-16.72,62.33-16.72" transform="translate(-395.26 -413.7)" style="fill:#3da1c9" />
    <path d="M510.82,518.32c28,0,52,6.84,62.2,16.55a50.28,50.28,0,0,0,5.34-22.61c0-32.07-30.24-60.07-67.54-60.07s-67.5,28-67.5,60.07a50.77,50.77,0,0,0,5.33,22.61c10.28-9.71,34.25-16.55,62.17-16.55" transform="translate(-395.26 -413.7)" style="fill:#40a3c9" />
    <path d="M510.8,518.39c27.91,0,51.81,6.77,62,16.4a49.71,49.71,0,0,0,5.32-22.4c0-31.76-30.15-59.61-67.36-59.61s-67.31,27.85-67.31,59.61a49.88,49.88,0,0,0,5.32,22.4c10.25-9.62,34.16-16.4,62-16.4" transform="translate(-395.26 -413.7)" style="fill:#42a6cc" />
    <path d="M510.8,518.46c27.84,0,51.66,6.71,61.87,16.22a48.69,48.69,0,0,0,5.3-22.17c0-31.45-30.07-59.15-67.17-59.15s-67.12,27.7-67.12,59.14a49,49,0,0,0,5.3,22.18c10.21-9.52,34.06-16.22,61.82-16.22" transform="translate(-395.26 -413.7)" style="fill:#45a8cc" />
    <path d="M510.78,518.54c27.77,0,51.52,6.63,61.71,16.07a48,48,0,0,0,5.29-22c0-31.14-30-58.68-67-58.68s-66.95,27.55-66.95,58.68a48.24,48.24,0,0,0,5.29,22c10.19-9.44,34-16.07,61.65-16.07" transform="translate(-395.26 -413.7)" style="fill:#47abcf" />
    <path d="M510.78,518.62c27.69,0,51.39,6.57,61.53,15.91a47.18,47.18,0,0,0,5.29-21.74c0-30.83-29.91-58.21-66.82-58.21S444,482,444,512.78a47.53,47.53,0,0,0,5.29,21.74c10.14-9.33,33.86-15.91,61.48-15.91" transform="translate(-395.26 -413.7)" style="fill:#4aadd1" />
    <path d="M510.77,518.69c27.61,0,51.24,6.51,61.36,15.75a46.32,46.32,0,0,0,5.28-21.51c0-30.52-29.84-57.76-66.64-57.76s-66.59,27.24-66.59,57.74a46.76,46.76,0,0,0,5.28,21.53c10.12-9.24,33.78-15.75,61.31-15.75" transform="translate(-395.26 -413.7)" style="fill:#4ab0d1" />
    <path d="M510.76,518.77c27.53,0,51.11,6.43,61.2,15.59A45.75,45.75,0,0,0,577.21,513c0-30.2-29.75-57.28-66.45-57.28s-66.4,27.08-66.4,57.27a46,46,0,0,0,5.26,21.32c10.1-9.16,33.68-15.59,61.14-15.59" transform="translate(-395.26 -413.7)" style="fill:#4fb2d4" />
    <path d="M510.75,518.84c27.45,0,51,6.37,61,15.43A44.78,44.78,0,0,0,577,513.18c0-29.9-29.67-56.82-66.27-56.82s-66.22,26.92-66.22,56.81a45.26,45.26,0,0,0,5.24,21.1c10.08-9.06,33.6-15.43,61-15.43" transform="translate(-395.26 -413.7)" style="fill:#54bad6" />
    <path d="M510.74,518.92c27.38,0,50.83,6.3,60.84,15.26a44,44,0,0,0,5.24-20.86c0-29.58-29.58-56.35-66.08-56.35s-66,26.77-66,56.35a44.35,44.35,0,0,0,5.23,20.87c10-9,33.51-15.26,60.81-15.26" transform="translate(-395.26 -413.7)" style="fill:#54bdd6" />
    <path d="M510.73,519c27.3,0,50.69,6.23,60.69,15.1a43.39,43.39,0,0,0,5.23-20.65c0-29.28-29.5-55.89-65.91-55.89s-65.86,26.61-65.86,55.87a43.72,43.72,0,0,0,5.22,20.67c10-8.87,33.41-15.1,60.64-15.1" transform="translate(-395.26 -413.7)" style="fill:#59bfd9" />
    <path d="M510.72,519.07c27.23,0,50.54,6.16,60.51,14.94a42.54,42.54,0,0,0,5.21-20.43c0-29-29.42-55.42-65.73-55.42S445,484.62,445,513.56a42.88,42.88,0,0,0,5.2,20.45c10-8.78,33.32-14.94,60.47-14.94" transform="translate(-395.26 -413.7)" style="fill:#59c2d9" />
    <path d="M510.72,519.24c27.18,0,50.48,6.13,60.44,14.84a42.16,42.16,0,0,0,5.2-20.3c0-28.77-29.38-55.08-65.64-55.08S445.14,485,445.14,513.77a42.54,42.54,0,0,0,5.2,20.31c10-8.71,33.28-14.84,60.39-14.84" transform="translate(-395.26 -413.7)" style="fill:#5ec2db" />
    <path d="M510.72,519.41c27.15,0,50.41,6.09,60.34,14.74a41.58,41.58,0,0,0,5.2-20.17c0-28.59-29.33-54.74-65.54-54.74s-65.5,26.16-65.5,54.73a42.15,42.15,0,0,0,5.19,20.18c10-8.65,33.23-14.74,60.31-14.74" transform="translate(-395.26 -413.7)" style="fill:#63c4db" />
    <path d="M510.72,519.58c27.12,0,50.34,6.05,60.27,14.65a41.28,41.28,0,0,0,5.19-20c0-28.4-29.3-54.4-65.46-54.4s-65.4,26-65.4,54.39a41.57,41.57,0,0,0,5.18,20c9.95-8.59,33.19-14.65,60.22-14.65" transform="translate(-395.26 -413.7)" style="fill:#69c7de" />
    <path d="M510.72,519.75c27.08,0,50.28,6,60.18,14.56a40.86,40.86,0,0,0,5.18-19.9c0-28.22-29.26-54.06-65.37-54.06s-65.31,25.85-65.31,54a41.14,41.14,0,0,0,5.17,19.93c9.94-8.55,33.14-14.56,60.14-14.56" transform="translate(-395.26 -413.7)" style="fill:#6ec9de" />
    <path d="M510.72,519.92c27,0,50.21,6,60.1,14.46A40.46,40.46,0,0,0,576,514.61c0-28-29.22-53.72-65.28-53.72s-65.22,25.7-65.22,53.71a40.83,40.83,0,0,0,5.17,19.79c9.92-8.5,33.09-14.46,60.06-14.46" transform="translate(-395.26 -413.7)" style="fill:#73cce0" />
    <path d="M510.72,520.1c27,0,50.13,5.93,60,14.36a40.08,40.08,0,0,0,5.17-19.64c0-27.84-29.19-53.38-65.19-53.38S445.58,487,445.58,514.81a40.25,40.25,0,0,0,5.17,19.65c9.9-8.43,33-14.36,60-14.36" transform="translate(-395.26 -413.7)" style="fill:#7acfe0" />
    <path d="M510.72,520.27c27,0,50.07,5.89,59.94,14.27a39.58,39.58,0,0,0,5.16-19.5c0-27.65-29.14-53-65.1-53s-65,25.39-65,53a39.94,39.94,0,0,0,5.15,19.51c9.89-8.38,33-14.27,59.9-14.27" transform="translate(-395.26 -413.7)" style="fill:#80cfe3" />
    <path d="M510.72,520.44c26.93,0,50,5.85,59.85,14.17a39.21,39.21,0,0,0,5.16-19.36c0-27.47-29.11-52.7-65-52.7s-65,25.23-65,52.67a39.46,39.46,0,0,0,5.15,19.39c9.87-8.32,33-14.17,59.82-14.17" transform="translate(-395.26 -413.7)" style="fill:#85d1e3" />
    <path d="M510.72,520.61c26.9,0,49.93,5.81,59.77,14.07a38.78,38.78,0,0,0,5.15-19.24c0-27.28-29.06-52.36-64.92-52.36s-64.87,25.08-64.87,52.34A38.94,38.94,0,0,0,451,534.68c9.85-8.26,32.91-14.07,59.73-14.07" transform="translate(-395.26 -413.7)" style="fill:#8ad4e5" />
    <path d="M510.72,520.78c26.85,0,49.87,5.77,59.69,14a38.35,38.35,0,0,0,5.15-19.1c0-27.09-29-52-64.84-52s-64.79,24.93-64.79,52a38.61,38.61,0,0,0,5.13,19.11c9.85-8.21,32.88-14,59.66-14" transform="translate(-395.26 -413.7)" style="fill:#8fd6e5" />
    <path d="M510.72,520.95c26.82,0,49.8,5.73,59.61,13.87a37.85,37.85,0,0,0,5.13-19c0-26.91-29-51.67-64.74-51.67S446,489,446,515.85a38.2,38.2,0,0,0,5.12,19c9.83-8.15,32.82-13.88,59.57-13.88" transform="translate(-395.26 -413.7)" style="fill:#94d6e8" />
    <path d="M510.72,521.12c26.78,0,49.73,5.69,59.53,13.77a37.47,37.47,0,0,0,5.12-18.83c0-26.72-28.95-51.33-64.65-51.33s-64.6,24.62-64.6,51.32a37.8,37.8,0,0,0,5.1,18.86c9.82-8.09,32.78-13.78,59.5-13.78" transform="translate(-395.26 -413.7)" style="fill:#99d9e8" />
    <path d="M510.72,521.29c26.75,0,49.66,5.65,59.45,13.68a37.11,37.11,0,0,0,5.12-18.7c0-26.54-28.91-51-64.57-51s-64.52,24.47-64.52,51A37.33,37.33,0,0,0,451.31,535c9.8-8,32.73-13.68,59.41-13.68" transform="translate(-395.26 -413.7)" style="fill:#9edbe8" />
    <path d="M510.72,521.46c26.71,0,49.6,5.61,59.36,13.58a36.68,36.68,0,0,0,5.12-18.57c0-26.33-28.87-50.65-64.47-50.65s-64.43,24.32-64.43,50.64a36.92,36.92,0,0,0,5.1,18.59c9.77-8,32.69-13.59,59.33-13.59" transform="translate(-395.26 -413.7)" style="fill:#a3deeb" />
    <path d="M510.72,521.64c26.68,0,49.54,5.58,59.28,13.48a36.28,36.28,0,0,0,5.11-18.43c0-26.16-28.83-50.31-64.39-50.31s-64.34,24.16-64.34,50.3a36.58,36.58,0,0,0,5.09,18.45c9.77-7.92,32.66-13.49,59.25-13.49" transform="translate(-395.26 -413.7)" style="fill:#a8deed" />
    <path d="M510.72,521.81c26.63,0,49.46,5.54,59.2,13.38a35.89,35.89,0,0,0,5.1-18.3c0-26-28.79-50-64.3-50s-64.25,24-64.25,50a36,36,0,0,0,5.09,18.32c9.76-7.86,32.6-13.39,59.16-13.4" transform="translate(-395.26 -413.7)" style="fill:#b0e3ed" />
    <path d="M510.72,522c26.6,0,49.39,5.5,59.12,13.29a35.52,35.52,0,0,0,5.09-18.16c0-25.79-28.75-49.63-64.21-49.63s-64.17,23.86-64.17,49.61a35.74,35.74,0,0,0,5.08,18.19c9.74-7.8,32.56-13.29,59.09-13.3" transform="translate(-395.26 -413.7)" style="fill:#b5e3ed" />
    <path d="M510.72,522.15c26.56,0,49.33,5.46,59,13.19a35.13,35.13,0,0,0,5.09-18c0-25.61-28.73-49.3-64.13-49.3s-64.08,23.71-64.08,49.28a35.2,35.2,0,0,0,5.07,18c9.73-7.74,32.52-13.19,59-13.2" transform="translate(-395.26 -413.7)" style="fill:#bae5f0" />
    <path d="M510.72,522.32c26.53,0,49.26,5.42,59,13.1a34.7,34.7,0,0,0,5.07-17.9c0-25.41-28.67-48.95-64-48.95s-64,23.55-64,48.94a34.9,34.9,0,0,0,5,17.92c9.72-7.68,32.47-13.1,58.93-13.1" transform="translate(-395.26 -413.7)" style="fill:#bfe8f2" />
    <path d="M510.72,522.49c26.49,0,49.19,5.39,58.86,13a34.23,34.23,0,0,0,5.08-17.77c0-25.23-28.64-48.6-63.94-48.6s-63.91,23.4-63.91,48.6a34.56,34.56,0,0,0,5.06,17.78c9.71-7.63,32.44-13,58.85-13" transform="translate(-395.26 -413.7)" style="fill:#c4e8f2" />
    <path d="M510.72,522.66c26.46,0,49.12,5.34,58.79,12.9a33.87,33.87,0,0,0,5.07-17.63c0-25-28.6-48.27-63.86-48.27s-63.81,23.24-63.81,48.27a34.08,34.08,0,0,0,5,17.64c9.69-7.57,32.39-12.91,58.76-12.91" transform="translate(-395.26 -413.7)" style="fill:#c9ebf2" />
    <path d="M510.72,522.83c26.41,0,49.06,5.29,58.71,12.81a33.63,33.63,0,0,0,5-17.5c0-24.85-28.56-47.93-63.76-47.93S447,493.3,447,518.13a33.74,33.74,0,0,0,5,17.52c9.68-7.52,32.35-12.81,58.69-12.82" transform="translate(-395.26 -413.7)" style="fill:#cfedf5" />
    <path d="M510.72,523c26.38,0,49,5.26,58.63,12.71a33.16,33.16,0,0,0,5-17.36c0-24.68-28.53-47.6-63.67-47.6S447.1,493.7,447.1,518.34a33.32,33.32,0,0,0,5,17.39c9.66-7.46,32.3-12.71,58.61-12.72" transform="translate(-395.26 -413.7)" style="fill:#d4f0f5" />
    <path d="M510.72,523.18c26.33,0,48.92,5.22,58.54,12.61a32.78,32.78,0,0,0,5-17.23c0-24.47-28.48-47.25-63.58-47.25s-63.55,22.78-63.55,47.24a32.75,32.75,0,0,0,5,17.25c9.63-7.4,32.25-12.61,58.52-12.62" transform="translate(-395.26 -413.7)" style="fill:#d9f2f5" />
    <path d="M510.72,523.35c26.31,0,48.86,5.18,58.46,12.52a32.28,32.28,0,0,0,5-17.09c0-24.29-28.45-46.92-63.5-46.92s-63.45,22.63-63.45,46.9a32.42,32.42,0,0,0,5,17.12c9.64-7.34,32.21-12.52,58.44-12.52" transform="translate(-395.26 -413.7)" style="fill:#def2f7" />
    <path d="M510.72,523.52c26.27,0,48.79,5.14,58.38,12.42a32,32,0,0,0,5-17c0-24.09-28.4-46.57-63.4-46.57S447.36,494.88,447.36,519a32.12,32.12,0,0,0,5,17c9.61-7.29,32.16-12.42,58.35-12.43" transform="translate(-395.26 -413.7)" style="fill:#e5f5fa" />
    <path d="M510.72,523.69c26.23,0,48.72,5.1,58.29,12.32a31.53,31.53,0,0,0,5-16.83c0-23.91-28.37-46.23-63.31-46.23s-63.28,22.33-63.28,46.22a31.7,31.7,0,0,0,5,16.85c9.6-7.23,32.12-12.33,58.28-12.33" transform="translate(-395.26 -413.7)" style="fill:#ebf7fa" />
    <path d="M510.72,523.86c26.19,0,48.65,5.07,58.21,12.22a31.16,31.16,0,0,0,5-16.7c0-23.73-28.33-45.89-63.23-45.89s-63.18,22.17-63.18,45.88a31.34,31.34,0,0,0,5,16.72c9.58-7.17,32.08-12.23,58.2-12.24" transform="translate(-395.26 -413.7)" style="fill:#f0fafc" />
    <path d="M510.72,524c26.15,0,48.59,5,58.13,12.12a30.84,30.84,0,0,0,5-16.55c0-23.54-28.29-45.55-63.14-45.55s-63.09,22-63.09,45.53a31,31,0,0,0,5,16.59c9.57-7.12,32-12.14,58.12-12.14" transform="translate(-395.26 -413.7)" style="fill:#f5fafc" />
    <path d="M510.72,524.2c26.11,0,48.52,5,58.06,12a30.51,30.51,0,0,0,5-16.44c0-23.35-28.24-45.21-63-45.21s-63,21.87-63,45.2a30.53,30.53,0,0,0,5,16.45c9.56-7.06,32-12,58-12" transform="translate(-395.26 -413.7)" style="fill:#fafcff" />
    <path d="M510.72,524.37c26.09,0,48.45,4.95,58,11.94a30.12,30.12,0,0,0,5-16.3c0-23.18-28.21-44.88-63-44.88S447.81,496.86,447.81,520a30,30,0,0,0,5,16.32c9.54-7,31.93-11.94,57.94-11.95" transform="translate(-395.26 -413.7)" style="fill:#fff" />
  </g>
  <path d="M510.41,501.27c-22.82,0-44,3.88-61.43,10.44a67.28,67.28,0,0,0,122.85,0c-17.47-6.56-38.66-10.44-61.42-10.44" transform="translate(-395.26 -413.7)" style="fill:#0869ab" />
</svg>